<svg width="76" height="76" viewBox="0 0 76 76" fill="none" xmlns="http://www.w3.org/2000/svg">
<g clip-path="url(#clip0)">
<path d="M75.9721 39.1683C75.8714 38.5876 75.3821 38.2392 74.6744 38.2315C74.4561 38.2284 74.2393 38.25 74.0271 38.2268C73.609 38.1835 73.4991 38.3228 73.5022 38.6542C73.5223 40.2802 73.5161 41.9046 73.5099 43.5259C73.5053 44.376 72.6753 45.2494 71.678 45.4708C68.581 46.1506 65.487 46.8413 62.3869 47.5149C62.0385 47.5907 61.6715 47.6295 61.3169 47.6264C61.162 47.6264 60.9483 47.5087 60.8817 47.3941C60.8384 47.3182 60.9746 47.1339 61.0815 47.0395C61.2224 46.9249 61.402 46.8335 61.5863 46.77C62.1546 46.5672 62.7322 46.3829 63.3067 46.1924C65.6063 45.4275 67.9105 44.6718 70.2069 43.9022C71.2429 43.5522 71.8019 42.8615 71.819 41.9897C71.8716 39.1652 71.8453 36.3407 71.8329 33.5131C71.8329 33.0656 71.6006 32.6924 71.0679 32.4988C70.4547 32.2789 69.9158 32.4539 69.3831 32.7079C66.1281 34.261 62.8747 35.8111 59.6166 37.3612C58.658 37.818 58.1238 38.4792 58.1284 39.4207C58.1393 42.0919 58.1315 44.7585 58.1346 47.4266C58.1346 47.5598 58.1486 47.696 58.1904 47.823C58.5109 48.7305 59.3425 49.2508 60.4915 49.2508C62.7818 49.257 65.0798 49.2539 67.3716 49.2539C69.6557 49.2539 71.932 49.257 74.2161 49.2508C74.7116 49.2508 75.1684 49.1486 75.5401 48.8419C76.0216 48.4548 75.9969 47.9624 75.9969 47.4715C76.0015 44.87 76.0015 42.2716 75.9984 39.6654C76.0031 39.5028 76 39.3325 75.9721 39.1683ZM66.4487 38.3337C66.6794 37.7344 67.1827 37.3596 67.9507 37.2636C68.4587 37.1986 68.9015 37.5129 68.9743 37.9713C69.0843 38.6774 68.2016 39.4982 67.3298 39.4951C66.602 39.4951 66.1963 38.9856 66.4487 38.3337Z" fill="#99A2A9"/>
<path d="M11.7873 28.0082C11.7873 28.832 11.7873 29.6388 11.7873 30.4534C11.1633 30.4534 10.5826 30.4534 9.95699 30.4534C9.95699 29.6218 9.95699 28.815 9.95699 28.0005C9.61786 28.0005 9.32364 28.0005 9 28.0005C9 30.0399 9 32.0437 9 34.0521C9.33448 34.0521 9.63644 34.0521 9.98641 34.0521C9.98641 33.1354 9.98641 32.2434 9.98641 31.3422C10.6058 31.3422 11.1788 31.3422 11.7935 31.3422C11.7935 32.2558 11.7935 33.1493 11.7935 34.0552C12.142 34.0552 12.4439 34.0552 12.7676 34.0552C12.7676 32.0298 12.7676 30.0229 12.7676 28.0082C12.4362 28.0082 12.1342 28.0082 11.7873 28.0082Z" fill="#99A2A9"/>
<path d="M36.1318 44.6656C35.8437 43.227 34.7505 42.3537 33.0053 42.2096C32.3178 42.157 31.6178 42.2004 30.8761 42.2004C30.8761 40.9321 30.8761 39.6499 30.8761 38.3708C30.3496 38.3708 29.8726 38.3708 29.3833 38.3708C29.3833 41.8953 29.3833 45.395 29.3833 49.0185C30.4874 49.0185 31.5543 49.082 32.6073 49.0015C34.1853 48.8838 35.3885 48.2566 35.9521 46.9698C36.2804 46.2234 36.2866 45.4461 36.1318 44.6656ZM33.8229 46.2792C33.5457 47.456 32.341 48.0104 30.8885 47.6666C30.8885 46.3597 30.8823 45.0744 30.9009 43.786C30.9009 43.7009 31.0495 43.5615 31.1564 43.5414C32.6089 43.2332 33.5798 43.7164 33.8322 44.9289C33.922 45.364 33.9251 45.8425 33.8229 46.2792Z" fill="#99A2A9"/>
<path d="M6.66643 24.7454C6.13839 24.7454 5.61344 24.7469 5.08694 24.7454C4.34365 24.7423 3.72733 24.9746 3.22097 25.4221C1.48198 26.9613 1.93879 29.8849 4.25228 30.509C3.47493 31.6766 2.70221 32.8411 1.89233 34.0613C2.22217 34.0613 2.47613 34.0443 2.72389 34.066C3.05218 34.0954 3.22097 33.9885 3.37272 33.7454C3.95187 32.8055 4.56663 31.8794 5.16746 30.9472C5.44465 30.5198 5.47871 30.5075 6.13219 30.6329C6.13219 31.7602 6.13219 32.8968 6.13219 34.0319C6.52707 34.0319 6.86929 34.0319 7.24093 34.0319C7.24093 33.8368 7.24093 33.6726 7.24093 33.5054C7.24093 30.7397 7.24093 27.9725 7.24093 25.2053C7.24093 24.7454 7.23939 24.7469 6.66643 24.7454ZM6.10122 29.6573C5.34709 29.6496 4.56044 29.8369 3.98594 29.2717C3.32782 28.626 3.14044 27.8796 3.38356 27.0604C3.40369 26.9954 3.43621 26.9335 3.46254 26.8715C3.95187 25.7457 4.5976 25.4329 6.10122 25.6203C6.10122 26.966 6.10122 28.2931 6.10122 29.6573Z" fill="#99A2A9"/>
<path d="M34.0721 33.1832C32.4291 33.7314 31.2956 33.2359 30.9983 31.805C30.8419 31.0633 30.8977 30.3169 31.1686 29.5937C31.5341 28.6058 32.2604 28.3116 33.4682 28.6383C33.4914 28.6445 33.5193 28.6336 33.5611 28.6275C33.6819 28.4772 33.8058 28.3193 33.9405 28.1505C32.9433 27.4955 31.5759 27.6519 30.8326 28.4788C30.2581 29.1168 30.0336 29.8554 29.9608 30.6312C29.8787 31.5216 29.9887 32.3857 30.5771 33.1677C31.1934 33.9853 32.2619 34.3694 33.3614 34.1123C34.1372 33.9296 34.2239 33.8491 34.0721 33.1832Z" fill="#99A2A9"/>
<path d="M8.06007 47.7612C8.06007 44.6177 8.06007 41.5098 8.06007 38.374C6.13525 38.374 4.27083 38.374 2.45286 38.374C2.37544 39.9675 2.33827 41.5346 2.21129 43.0986C2.09825 44.486 1.79164 45.8472 1.17843 47.1572C0.97557 47.5893 0.732452 47.8742 0.113042 47.7705C0.0805232 47.7658 0.0402616 47.7906 0 47.8061C0 48.9582 0 50.1041 0 51.25C0.565211 51.25 1.0979 51.25 1.67395 51.25C1.67395 50.4711 1.67395 49.7232 1.67395 48.9768C3.70717 48.9768 5.70012 48.9768 7.73642 48.9768C7.73642 49.7479 7.73642 50.4943 7.73642 51.2562C8.30318 51.2562 8.82349 51.2562 9.36238 51.2562C9.36238 50.0917 9.36238 48.9427 9.36238 47.7612C8.91485 47.7612 8.5014 47.7612 8.06007 47.7612ZM6.24365 47.7488C4.98625 47.7488 3.74278 47.7488 2.57365 47.7488C2.88645 46.9652 3.26893 46.1941 3.50121 45.3935C3.96732 43.7846 3.96422 42.1338 3.97661 40.4878C3.97971 40.2338 3.97661 39.9767 3.97661 39.698C4.73693 39.698 5.47403 39.698 6.2452 39.698C6.24365 42.3615 6.24365 45.0327 6.24365 47.7488Z" fill="#99A2A9"/>
<path d="M23.8178 33.2654C23.5344 33.3474 23.2619 33.4465 22.977 33.5038C22.1826 33.6649 21.6158 33.4884 21.3138 32.9882C20.9592 32.4028 20.9763 31.7741 20.998 31.116C22.0169 31.116 22.9955 31.116 23.9943 31.116C24.0594 30.1312 23.9386 29.2082 23.3145 28.3689C22.7664 27.6318 21.8171 27.5142 21.063 28.1196C20.7796 28.3457 20.5411 28.6353 20.3739 28.9295C19.9062 29.7487 19.7282 30.6313 19.8381 31.5264C19.9078 32.0823 20.0611 32.6475 20.298 33.1709C20.6418 33.9405 21.4362 34.3338 22.3545 34.2363C22.7989 34.1898 23.2433 34.0644 23.6614 33.9188C24.1275 33.7578 24.1399 33.6091 23.8178 33.2654ZM21.495 28.8273C21.8326 28.4076 22.3901 28.42 22.6889 28.8598C23.0234 29.3476 23.0637 29.8865 23.0497 30.4517C22.3235 30.4517 21.6592 30.4517 20.9623 30.4517C20.9949 29.8602 21.1079 29.312 21.495 28.8273Z" fill="#99A2A9"/>
<path d="M26.5727 38.5721C26.5076 38.4931 26.4256 38.3739 26.3435 38.3708C25.8495 38.3507 25.354 38.3584 24.8074 38.3584C24.8074 39.8279 24.8074 41.2774 24.8074 42.7345C23.7327 42.7345 22.7106 42.7345 21.6019 42.7345C21.6019 41.265 21.6019 39.8248 21.6019 38.3661C21.0026 38.3661 20.456 38.3661 19.8923 38.3661C19.8923 41.9355 19.8923 45.4863 19.8923 49.0541C20.473 49.0541 21.029 49.0541 21.6236 49.0541C21.6236 48.8992 21.6236 48.766 21.6236 48.636C21.6236 47.3878 21.622 46.1475 21.6236 44.9009C21.6236 44.2149 21.6236 44.2149 22.4443 44.2149C23.2217 44.2149 23.999 44.2149 24.8197 44.2149C24.8197 45.8579 24.8197 47.4513 24.8197 49.0572C25.4221 49.0572 25.9796 49.0572 26.5572 49.0572C26.5649 48.9395 26.5773 48.8388 26.5773 48.7428C26.5773 45.3949 26.5773 42.047 26.5773 38.7022C26.5773 38.6573 26.599 38.6015 26.5727 38.5721Z" fill="#99A2A9"/>
<path d="M27.5281 30.3743C28.1258 29.6868 28.6972 28.9853 29.2779 28.29C29.3491 28.2049 29.4111 28.115 29.5102 27.985C29.3228 27.985 29.2129 27.9974 29.1091 27.9834C28.6848 27.9261 28.4262 28.0639 28.1955 28.3675C27.686 29.0364 27.1208 29.6744 26.5757 30.3232C26.5138 30.396 26.4364 30.4595 26.2877 30.6035C26.2877 29.6729 26.2877 28.8459 26.2877 28.002C25.9532 28.002 25.6605 28.002 25.3416 28.002C25.3416 29.9934 25.3416 31.9523 25.3416 33.9096C25.6667 33.9096 25.9594 33.9096 26.3016 33.9096C26.3016 33.2081 26.2862 32.5206 26.3109 31.8361C26.3202 31.6008 26.4286 31.3654 26.4906 31.13C26.6748 31.2431 26.7538 31.3437 26.8235 31.449C27.3175 32.1908 27.8053 32.9325 28.3039 33.6696C28.3689 33.7672 28.4804 33.8988 28.5857 33.9127C28.8675 33.9483 29.1571 33.9251 29.5055 33.9251C28.8118 32.869 28.1645 31.8718 27.5017 30.8792C27.3763 30.6933 27.367 30.5586 27.5281 30.3743Z" fill="#99A2A9"/>
<path d="M50.2743 38.3369C49.9956 38.3276 49.8702 38.4066 49.7711 38.6187C49.1006 40.096 48.413 41.5656 47.7301 43.0382C47.4313 43.6824 47.1215 44.3266 46.8196 44.9708C46.7902 44.9677 46.7669 44.9615 46.7375 44.9584C46.7375 42.7657 46.7375 40.573 46.7375 38.3632C46.1367 38.3632 45.5792 38.3632 45.0078 38.3632C45.0078 41.9388 45.0078 45.5019 45.0078 49.0666C45.5792 49.0666 46.1181 49.0666 46.7065 49.0666C47.7859 46.7346 48.8652 44.3932 49.9538 42.0317C49.9538 44.3823 49.9538 46.7222 49.9538 49.0604C50.632 49.0604 51.2608 49.0604 51.908 49.0604C51.908 45.4849 51.908 41.9341 51.908 38.3447C51.3459 38.3447 50.8101 38.3601 50.2743 38.3369Z" fill="#99A2A9"/>
<path d="M17.5217 47.5289C16.9905 47.6931 16.512 47.8804 16.0072 47.9842C14.3673 48.3202 13.2957 47.8665 12.8281 46.6772C12.4673 45.7636 12.4812 44.8206 12.4657 43.8249C14.262 43.8249 16.0041 43.8249 17.8174 43.8249C17.7431 42.9964 17.7353 42.1881 17.5851 41.4061C17.3947 40.4259 17.0168 39.4859 16.2348 38.6962C15.5426 37.9978 14.7095 37.7949 13.6705 38.0767C12.5912 38.3694 11.933 39.0477 11.4902 39.8514C10.1925 42.2098 10.081 44.6394 11.0751 47.0891C11.374 47.8293 11.8804 48.4735 12.7228 48.8854C14.135 49.5807 16.4191 49.3392 17.8515 48.3373C17.7384 48.0585 17.6239 47.7767 17.5217 47.5289ZM13.2741 39.9489C13.5265 39.5943 13.8625 39.3047 14.4262 39.331C14.9774 39.3605 15.3042 39.6485 15.5256 40.0232C16.0149 40.8641 16.097 41.7653 16.0924 42.7006C14.8597 42.7006 13.6689 42.7006 12.4146 42.7006C12.5075 41.7111 12.681 40.7836 13.2741 39.9489Z" fill="#99A2A9"/>
<path d="M18.3254 33.2484C18.3254 31.4893 18.3254 29.7519 18.3254 28.0005C17.2615 28.0005 16.241 28.0005 15.1617 28.0005C15.1617 28.3938 15.1757 28.7469 15.1602 29.1015C15.1075 30.3341 15.0626 31.5683 14.5485 32.7483C14.4215 33.0394 14.3271 33.3506 13.8362 33.2856C13.8362 33.9422 13.8362 34.5678 13.8362 35.1903C14.1459 35.1903 14.4231 35.1903 14.7483 35.1903C14.7483 34.7644 14.7483 34.3587 14.7483 33.953C15.9066 33.953 17.0153 33.953 18.1751 33.953C18.1751 34.382 18.1751 34.7877 18.1751 35.1841C18.5003 35.1841 18.7744 35.1841 19.0377 35.1841C19.0377 34.5275 19.0377 33.9019 19.0377 33.2763C18.7899 33.267 18.5793 33.2577 18.3254 33.2484ZM17.3266 33.2484C16.6049 33.2484 15.9267 33.2484 15.1958 33.2484C16.1203 31.8176 15.9948 30.2799 16.0614 28.7453C16.4842 28.7453 16.893 28.7453 17.3266 28.7453C17.3266 30.2443 17.3266 31.7293 17.3266 33.2484Z" fill="#99A2A9"/>
<path d="M37.7329 38.3601C37.7329 41.9434 37.7329 45.5004 37.7376 49.0589C38.2702 49.0589 38.7766 49.0589 39.3186 49.0589C39.3186 45.8503 39.3186 42.665 39.3186 39.4363C40.9476 39.4363 42.5457 39.4363 44.1391 39.4363C44.1391 39.0538 44.1391 38.7147 44.1391 38.3601C41.9991 38.3601 39.8869 38.3601 37.7329 38.3601Z" fill="#99A2A9"/>
</g>
<defs>
<clipPath id="clip0">
<rect width="76" height="76" fill="white"/>
</clipPath>
</defs>
</svg>
