<svg width="47" height="29" viewBox="0 0 47 29" fill="none" xmlns="http://www.w3.org/2000/svg">
<path d="M32.9324 0.429444C29.3017 0.430414 25.9923 1.8066 23.4981 4.06693C21.0019 1.80951 17.6944 0.432356 14.0676 0.432356C14.0375 0.432356 14.0064 0.432356 13.9773 0.432356C6.25399 0.482822 0 6.76592 0 14.4999C0 22.265 6.30251 28.5666 14.0666 28.5666C17.6934 28.5666 21.0009 27.1913 23.4961 24.932C22.975 24.4613 22.5033 23.9401 22.0578 23.3947H24.9626C24.5249 23.9314 24.0474 24.4341 23.534 24.9019H23.532C23.5204 24.9145 23.5078 24.9223 23.4961 24.933C25.9932 27.1942 29.3046 28.5724 32.9373 28.5714C40.7062 28.5685 47.0019 22.2679 47 14.4999C47 14.497 47 14.4951 47 14.4931C47.001 6.72516 40.7014 0.427503 32.9324 0.429444ZM22.2189 5.51978H24.8927C25.2867 5.99728 25.6526 6.5 25.9845 7.02602H21.2144C21.5221 6.52329 21.8598 6.00601 22.2189 5.51978ZM20.3837 8.50314H26.7959C27.0239 8.99034 27.2258 9.49403 27.4024 10.0103H19.6238C19.7014 9.86477 19.9732 9.27858 20.3837 8.50314ZM5.74252 18.0831L6.59561 12.7045L4.67108 18.0831H3.63942L3.50549 12.7045L2.59418 18.0831H1.14909L2.3467 10.9498H4.5323L4.60897 15.3268L6.08512 10.9498H8.45608L7.27496 18.0831H5.74252ZM10.8523 18.0714L10.9018 17.5017C10.8785 17.5046 10.4223 18.1898 9.36545 18.1898C8.81226 18.1898 7.91939 17.888 7.91939 16.5759C7.91939 14.9076 9.28004 14.3544 10.5757 14.3544C10.7795 14.3544 11.2191 14.3912 11.2191 14.3912C11.2191 14.3912 11.2686 14.2893 11.2686 14.0137C11.2686 13.5605 10.861 13.4984 10.303 13.4984C9.31984 13.4984 8.67056 13.7614 8.67056 13.7614L8.88796 12.4706C8.88796 12.4706 9.67601 12.1406 10.7018 12.1406C11.2327 12.1406 12.7593 12.1969 12.7593 13.9467L12.1712 18.0714H10.8523ZM16.4259 16.2546C16.4259 18.2451 14.4975 18.1597 14.1608 18.1597C12.9039 18.1597 12.5157 17.986 12.4798 17.9763L12.6798 16.6661C12.6817 16.6545 13.3106 16.8942 14.0103 16.8942C14.4141 16.8942 14.9381 16.8544 14.9381 16.3721C14.9381 15.65 13.0631 15.8227 13.0631 14.1079C13.0631 12.5948 14.187 12.1523 15.2953 12.1523C16.1513 12.1523 16.6773 12.2697 16.6773 12.2697L16.488 13.5915C16.488 13.5915 15.6757 13.5246 15.4651 13.5246C14.9323 13.5246 14.6421 13.641 14.6421 14.0137C14.6412 14.7629 16.4259 14.3961 16.4259 16.2546ZM18.7416 16.7768C18.8745 16.7768 19.025 16.7311 19.1278 16.7311L18.9405 18.0035C18.7901 18.0452 18.364 18.1966 17.8176 18.2005C17.1198 18.2063 16.6239 17.8162 16.6239 16.9311C16.6239 16.3371 17.4751 11.4428 17.5081 11.4108H19.0056L18.8532 12.2862H19.6005L19.4093 13.6964H18.6164L18.1952 16.2944C18.1631 16.5011 18.2204 16.7768 18.7416 16.7768ZM22.0355 12.1212C23.6795 12.1212 24.1716 13.3246 24.1716 14.3117C24.1716 14.7067 23.9736 15.6772 23.9736 15.6772H20.9301C20.9301 15.6772 20.6486 16.8758 22.2568 16.8758C23.0109 16.8758 23.8474 16.507 23.8474 16.507L23.5835 17.9501C23.5835 17.9501 23.1001 18.1966 22.0015 18.1966C20.8107 18.1966 19.4141 17.6929 19.4141 15.5772C19.4151 13.7439 20.5293 12.1212 22.0355 12.1212ZM26.002 21.9457H21.0116C20.7078 21.4605 20.4244 20.9626 20.1808 20.4395H26.8221C26.5775 20.9597 26.3038 21.4624 26.002 21.9457ZM25.6672 18.0937H24.1299L25.0645 12.2881H26.4591L26.3252 13.1296C26.3252 13.1296 26.8221 12.2144 27.4927 12.2144C27.6878 12.2144 27.7819 12.2338 27.7819 12.2338C27.5829 12.6395 27.4073 13.0112 27.2248 13.971C26.1844 13.6022 26.1049 15.6141 25.6672 18.0937ZM31.5242 18.0035C31.5242 18.0035 30.7187 18.2092 30.214 18.2092C28.4263 18.2092 27.5189 16.9757 27.5189 15.1075C27.5189 12.2901 29.2008 10.7897 30.9293 10.7897C31.7105 10.7897 32.616 11.1565 32.616 11.1565L32.3715 12.7433C32.3715 12.7433 31.7591 12.3153 30.9972 12.3153C29.9782 12.3153 29.064 13.2878 29.064 15.0551C29.064 15.9256 29.49 16.737 30.5537 16.737C31.0593 16.737 31.7921 16.3691 31.7921 16.3691L31.5242 18.0035ZM35.1297 18.0743L35.1801 17.5008C35.1559 17.5037 34.6997 18.1889 33.6438 18.1889C33.0906 18.1889 32.1977 17.887 32.1977 16.5749C32.1977 14.9066 33.5584 14.3534 34.8531 14.3534C35.0569 14.3534 35.4975 14.3903 35.4975 14.3903C35.4975 14.3903 35.5479 14.2893 35.5479 14.0137C35.5479 13.5605 35.1403 13.4984 34.5813 13.4984C33.5982 13.4984 32.9499 13.7614 32.9499 13.7614L33.1673 12.4706C33.1673 12.4706 33.9553 12.1406 34.9821 12.1406C35.512 12.1406 37.0396 12.1969 37.0387 13.9467L36.4505 18.0714C36.4496 18.0743 35.1297 18.0743 35.1297 18.0743ZM38.2421 18.0937H36.7048L37.6394 12.2881H39.035L38.9011 13.1296C38.9011 13.1296 39.3989 12.2144 40.0696 12.2144C40.2646 12.2144 40.3578 12.2338 40.3578 12.2338C40.1598 12.6395 39.9822 13.0112 39.8007 13.971C38.7594 13.6022 38.6798 15.6141 38.2421 18.0937ZM42.8316 18.0782L42.8967 17.5435C42.8967 17.5435 42.3998 18.1704 41.5011 18.1704C40.2559 18.1704 39.6455 16.968 39.6455 15.7393C39.6455 13.839 40.7887 12.1824 42.161 12.1824C43.0442 12.1843 43.6081 12.9636 43.6081 12.9636L43.9322 10.9595L45.4336 10.9566L44.2884 18.0782H42.8316ZM45.7937 17.8773C45.7539 17.9491 45.6976 18.0045 45.6258 18.0472C45.5549 18.087 45.4792 18.1073 45.3996 18.1073C45.322 18.1073 45.2473 18.087 45.1754 18.0472C45.1036 18.0045 45.0473 17.9491 45.0075 17.8773C44.9668 17.8045 44.9474 17.7308 44.9474 17.6522C44.9474 17.5726 44.9677 17.4969 45.0075 17.4251C45.0473 17.3532 45.1065 17.295 45.1774 17.2562C45.2511 17.2164 45.3239 17.196 45.3996 17.196C45.4773 17.196 45.551 17.2164 45.6228 17.2562C45.6966 17.296 45.7529 17.3513 45.7937 17.4251C45.8354 17.4979 45.8538 17.5736 45.8538 17.6522C45.8538 17.7308 45.8344 17.8055 45.7937 17.8773Z" fill="#99A2A9"/>
</svg>
