<svg width="97" height="97" viewBox="0 0 97 97" fill="none" xmlns="http://www.w3.org/2000/svg">
<g clip-path="url(#clip0)">
<path d="M91.5276 48.3681L89.251 50.425L91.3066 52.7002L93.5832 50.6433L91.5276 48.3681Z" fill="#99A2A9"/>
<path d="M86.9906 50.2187L83.9546 52.9517L86.6888 55.9891L89.7248 53.2562L86.9906 50.2187Z" fill="#99A2A9"/>
<path d="M95.6339 47.6442L94.1174 49.011L95.4843 50.5275L97.0007 49.1606L95.6339 47.6442Z" fill="#99A2A9"/>
<path d="M87.4803 38.9843L85.2014 41.0356L87.2527 43.3145L89.5316 41.2632L87.4803 38.9843Z" fill="#99A2A9"/>
<path d="M93.6921 43.1126L92.1787 44.48L93.5474 45.9948L95.0608 44.6275L93.6921 43.1126Z" fill="#99A2A9"/>
<path d="M10.1748 43.2405L8.68738 50.9499H8.58433L6.55831 43.2405H5.26143L3.36762 50.9499H3.26457L1.63326 43.2405H0L2.36045 53.5728H3.93537L5.85834 46.299H5.96139L7.94269 53.5728H9.51762L11.88 43.2405H10.1748Z" fill="#99A2A9"/>
<path d="M84.836 44.9566L81.7971 47.6921L84.5313 50.7296L87.5703 47.9941L84.836 44.9566Z" fill="#99A2A9"/>
<path d="M82.6657 39.7807L79.6282 42.5149L82.3624 45.5524L85.3999 42.8181L82.6657 39.7807Z" fill="#99A2A9"/>
<path d="M89.5732 43.5671L87.3 45.6189L89.3557 47.8964L91.6289 45.8446L89.5732 43.5671Z" fill="#99A2A9"/>
<path d="M91.743 38.608L90.2266 39.9749L91.5934 41.4913L93.1099 40.1245L91.743 38.608Z" fill="#99A2A9"/>
<path d="M66.7983 46.3574L65.1436 51.7258H65.0561L63.1915 46.3594H61.5894L64.3853 53.6488C64.0353 54.7279 63.4248 55.5134 62.4332 55.5134V56.7053C64.1073 56.7053 64.9959 55.6573 65.725 53.6449L68.3596 46.3574H66.7983Z" fill="#99A2A9"/>
<path d="M18.5531 49.6724C18.5551 47.2906 17.4332 46.1143 15.6113 46.1143C13.4258 46.1143 12.304 47.7145 12.304 49.931C12.304 52.2351 13.3111 53.7497 15.7571 53.7497C16.8051 53.7497 17.6801 53.4581 18.3354 53.0751V51.9726C17.5343 52.449 16.8051 52.729 16.0196 52.729C14.5205 52.729 13.805 51.959 13.805 50.2071H18.5531V49.6724ZM13.8342 49.2291C13.9936 47.7747 14.68 47.0884 15.5685 47.0884C16.356 47.0884 17.0987 47.697 17.1707 49.2291H13.8342Z" fill="#99A2A9"/>
<path d="M93.5338 52.9719L91.2559 55.0244L93.3097 57.3038L95.5876 55.2512L93.5338 52.9719Z" fill="#99A2A9"/>
<path d="M61.1286 49.6724C61.1324 47.2906 60.0086 46.1143 58.1887 46.1143C56.0013 46.1143 54.8813 47.7145 54.8813 49.931C54.8813 52.2351 55.8866 53.7497 58.3326 53.7497C59.3806 53.7497 60.2517 53.4581 60.9088 53.0751V51.9726C60.1097 52.449 59.3806 52.729 58.5951 52.729C57.096 52.729 56.3785 51.959 56.3785 50.2071H61.1286V49.6724ZM56.4077 49.2291C56.571 47.7747 57.2574 47.0884 58.1459 47.0884C58.9295 47.0884 59.6761 47.697 59.7481 49.2291H56.4077Z" fill="#99A2A9"/>
<path d="M89.5376 55.5541L86.5686 58.2918L81.5561 52.7134L82.9502 51.4866L79.4406 47.557L80.8425 46.3282L77.2804 42.4025L82.8393 37.3978L84.6048 39.3304L87.5855 36.6706L89.3471 38.4963L90.5215 37.4444C90.259 37.2928 89.9965 37.1528 89.7301 37.0264C88.0366 36.1981 86.135 35.7314 84.1323 35.7314C77.0996 35.7314 71.3618 41.4673 71.3618 48.502C71.3618 55.5347 77.0996 61.2705 84.1323 61.2705C86.4169 61.2705 88.5693 60.6659 90.4262 59.6062C91.0387 59.2601 91.5967 58.8848 92.1061 58.4901L89.5376 55.5541Z" fill="#99A2A9"/>
<path d="M23.3634 46.1143C22.576 46.1143 21.8332 46.4196 21.3938 46.6529V42.4998L19.8792 42.8634V53.0343C20.7541 53.499 21.9479 53.7479 22.7218 53.7479C24.8353 53.7479 26.1458 52.4199 26.1458 49.6939C26.1458 47.3665 25.1697 46.1143 23.3634 46.1143ZM22.7218 52.7271C22.3563 52.7271 21.8488 52.6998 21.3821 52.4957V47.7301C21.9654 47.4093 22.3893 47.2498 22.9687 47.2498C23.9448 47.2498 24.6175 47.8487 24.6175 49.6958C24.6175 52.0563 23.8009 52.7271 22.7218 52.7271Z" fill="#99A2A9"/>
<path d="M51.1229 46.1104C49.4469 46.1104 48.0625 46.7948 47.4072 47.1875V53.5689H48.9199V47.8C49.371 47.5375 50.1157 47.275 50.6971 47.275C51.4457 47.275 52.0115 47.4792 52.0115 48.6302V53.5708H53.5261V48.2978C53.5261 46.7987 52.8689 46.1142 51.1229 46.1104Z" fill="#99A2A9"/>
<path d="M35.9686 43.2405L32.8537 51.3854H32.7798L29.5152 43.2405H27.7537V53.5728H29.0642V46.2562H29.1944L32.1673 53.5728H33.0987L36.0716 46.0792H36.2019V53.5728H37.7749V43.2405H35.9686Z" fill="#99A2A9"/>
<path d="M42.7001 46.1143C40.7771 46.1143 39.3772 47.382 39.3772 49.931C39.3772 52.4218 40.7052 53.7497 42.7001 53.7497C44.6969 53.7497 46.023 52.4218 46.023 49.931C46.023 47.38 44.6231 46.1143 42.7001 46.1143ZM42.7001 52.727C41.6657 52.727 40.9074 51.9298 40.9074 49.931C40.9074 47.9633 41.7396 47.1331 42.7001 47.1331C43.6917 47.1331 44.4928 47.9633 44.4928 49.931C44.4928 51.9279 43.7345 52.727 42.7001 52.727Z" fill="#99A2A9"/>
</g>
<defs>
<clipPath id="clip0">
<rect width="97" height="97" fill="white"/>
</clipPath>
</defs>
</svg>
